<mxfile host="app.diagrams.net" modified="2022-05-26T00:50:34.547Z" agent="5.0 (Windows NT 10.0; Win64; x64) AppleWebKit/537.36 (KHTML, like Gecko) Chrome/101.0.4951.67 Safari/537.36" etag="yQEJOssTsp7YUzuvktoa" version="18.1.2" type="github">
  <diagram id="qpHJCxcwcaYMZpSIbfGM" name="Page-1">
    <mxGraphModel dx="2302" dy="1122" grid="1" gridSize="10" guides="1" tooltips="1" connect="1" arrows="1" fold="1" page="1" pageScale="1" pageWidth="827" pageHeight="1169" math="0" shadow="0">
      <root>
        <mxCell id="0" />
        <mxCell id="1" parent="0" />
        <mxCell id="12VAQ8Nin5VYsXPCudkx-8" value="" style="edgeStyle=orthogonalEdgeStyle;rounded=0;orthogonalLoop=1;jettySize=auto;html=1;" parent="1" source="12VAQ8Nin5VYsXPCudkx-1" target="12VAQ8Nin5VYsXPCudkx-6" edge="1">
          <mxGeometry relative="1" as="geometry" />
        </mxCell>
        <mxCell id="12VAQ8Nin5VYsXPCudkx-1" value="检测机构注册" style="rounded=0;whiteSpace=wrap;html=1;" parent="1" vertex="1">
          <mxGeometry x="163" y="110" width="100" height="60" as="geometry" />
        </mxCell>
        <mxCell id="12VAQ8Nin5VYsXPCudkx-3" style="edgeStyle=orthogonalEdgeStyle;rounded=0;orthogonalLoop=1;jettySize=auto;html=1;" parent="1" source="12VAQ8Nin5VYsXPCudkx-2" target="12VAQ8Nin5VYsXPCudkx-1" edge="1">
          <mxGeometry relative="1" as="geometry">
            <Array as="points">
              <mxPoint x="183" y="65" />
            </Array>
          </mxGeometry>
        </mxCell>
        <mxCell id="12VAQ8Nin5VYsXPCudkx-2" value="企业信息、资质" style="rounded=0;whiteSpace=wrap;html=1;" parent="1" vertex="1">
          <mxGeometry x="53" y="40" width="60" height="50" as="geometry" />
        </mxCell>
        <mxCell id="12VAQ8Nin5VYsXPCudkx-5" value="" style="edgeStyle=orthogonalEdgeStyle;rounded=0;orthogonalLoop=1;jettySize=auto;html=1;" parent="1" source="12VAQ8Nin5VYsXPCudkx-4" target="12VAQ8Nin5VYsXPCudkx-1" edge="1">
          <mxGeometry relative="1" as="geometry" />
        </mxCell>
        <mxCell id="12VAQ8Nin5VYsXPCudkx-4" value="人员信息、证书" style="rounded=0;whiteSpace=wrap;html=1;" parent="1" vertex="1">
          <mxGeometry x="53" y="115" width="60" height="50" as="geometry" />
        </mxCell>
        <mxCell id="12VAQ8Nin5VYsXPCudkx-9" value="" style="edgeStyle=orthogonalEdgeStyle;rounded=0;orthogonalLoop=1;jettySize=auto;html=1;" parent="1" source="12VAQ8Nin5VYsXPCudkx-6" target="12VAQ8Nin5VYsXPCudkx-7" edge="1">
          <mxGeometry relative="1" as="geometry" />
        </mxCell>
        <mxCell id="12VAQ8Nin5VYsXPCudkx-6" value="主管部门审批" style="rounded=0;whiteSpace=wrap;html=1;" parent="1" vertex="1">
          <mxGeometry x="346" y="110" width="100" height="60" as="geometry" />
        </mxCell>
        <mxCell id="12VAQ8Nin5VYsXPCudkx-10" style="edgeStyle=orthogonalEdgeStyle;rounded=0;orthogonalLoop=1;jettySize=auto;html=1;entryX=0.5;entryY=0;entryDx=0;entryDy=0;" parent="1" source="12VAQ8Nin5VYsXPCudkx-7" target="12VAQ8Nin5VYsXPCudkx-1" edge="1">
          <mxGeometry relative="1" as="geometry">
            <Array as="points">
              <mxPoint x="563" y="60" />
              <mxPoint x="213" y="60" />
            </Array>
          </mxGeometry>
        </mxCell>
        <mxCell id="12VAQ8Nin5VYsXPCudkx-13" value="" style="edgeStyle=orthogonalEdgeStyle;rounded=0;orthogonalLoop=1;jettySize=auto;html=1;" parent="1" source="12VAQ8Nin5VYsXPCudkx-7" target="12VAQ8Nin5VYsXPCudkx-12" edge="1">
          <mxGeometry relative="1" as="geometry" />
        </mxCell>
        <mxCell id="12VAQ8Nin5VYsXPCudkx-7" value="是否通过" style="rhombus;whiteSpace=wrap;html=1;" parent="1" vertex="1">
          <mxGeometry x="523" y="110" width="80" height="60" as="geometry" />
        </mxCell>
        <mxCell id="12VAQ8Nin5VYsXPCudkx-11" value="未通过，修改资料并重新提交" style="text;html=1;resizable=0;autosize=1;align=center;verticalAlign=middle;points=[];fillColor=none;strokeColor=none;rounded=0;" parent="1" vertex="1">
          <mxGeometry x="298" y="30" width="170" height="20" as="geometry" />
        </mxCell>
        <mxCell id="12VAQ8Nin5VYsXPCudkx-12" value="企业可管理&lt;br&gt;人员信息" style="rounded=0;whiteSpace=wrap;html=1;" parent="1" vertex="1">
          <mxGeometry x="673" y="110" width="100" height="60" as="geometry" />
        </mxCell>
        <mxCell id="12VAQ8Nin5VYsXPCudkx-14" value="通过" style="text;html=1;resizable=0;autosize=1;align=center;verticalAlign=middle;points=[];fillColor=none;strokeColor=none;rounded=0;" parent="1" vertex="1">
          <mxGeometry x="613" y="115" width="40" height="20" as="geometry" />
        </mxCell>
        <mxCell id="12VAQ8Nin5VYsXPCudkx-19" value="" style="edgeStyle=orthogonalEdgeStyle;rounded=0;orthogonalLoop=1;jettySize=auto;html=1;" parent="1" source="12VAQ8Nin5VYsXPCudkx-15" target="12VAQ8Nin5VYsXPCudkx-16" edge="1">
          <mxGeometry relative="1" as="geometry" />
        </mxCell>
        <mxCell id="12VAQ8Nin5VYsXPCudkx-67" value="" style="edgeStyle=orthogonalEdgeStyle;rounded=0;orthogonalLoop=1;jettySize=auto;html=1;" parent="1" source="12VAQ8Nin5VYsXPCudkx-15" target="12VAQ8Nin5VYsXPCudkx-66" edge="1">
          <mxGeometry relative="1" as="geometry">
            <Array as="points">
              <mxPoint x="70" y="410" />
              <mxPoint x="70" y="410" />
            </Array>
          </mxGeometry>
        </mxCell>
        <mxCell id="12VAQ8Nin5VYsXPCudkx-109" style="edgeStyle=orthogonalEdgeStyle;rounded=0;orthogonalLoop=1;jettySize=auto;html=1;entryX=0.5;entryY=0;entryDx=0;entryDy=0;" parent="1" source="12VAQ8Nin5VYsXPCudkx-15" target="12VAQ8Nin5VYsXPCudkx-88" edge="1">
          <mxGeometry relative="1" as="geometry">
            <Array as="points">
              <mxPoint x="130" y="410" />
              <mxPoint x="220" y="410" />
            </Array>
          </mxGeometry>
        </mxCell>
        <mxCell id="12VAQ8Nin5VYsXPCudkx-110" style="edgeStyle=orthogonalEdgeStyle;rounded=0;orthogonalLoop=1;jettySize=auto;html=1;entryX=0.5;entryY=0;entryDx=0;entryDy=0;" parent="1" source="12VAQ8Nin5VYsXPCudkx-15" target="12VAQ8Nin5VYsXPCudkx-20" edge="1">
          <mxGeometry relative="1" as="geometry">
            <Array as="points">
              <mxPoint x="100" y="230" />
              <mxPoint x="460" y="230" />
            </Array>
          </mxGeometry>
        </mxCell>
        <mxCell id="12VAQ8Nin5VYsXPCudkx-15" value="主管部门" style="rounded=0;whiteSpace=wrap;html=1;" parent="1" vertex="1">
          <mxGeometry x="50" y="320" width="100" height="60" as="geometry" />
        </mxCell>
        <mxCell id="12VAQ8Nin5VYsXPCudkx-21" value="" style="edgeStyle=orthogonalEdgeStyle;rounded=0;orthogonalLoop=1;jettySize=auto;html=1;" parent="1" source="12VAQ8Nin5VYsXPCudkx-16" target="12VAQ8Nin5VYsXPCudkx-20" edge="1">
          <mxGeometry relative="1" as="geometry" />
        </mxCell>
        <mxCell id="12VAQ8Nin5VYsXPCudkx-16" value="根据街道选定&lt;br&gt;房屋总数" style="rounded=0;whiteSpace=wrap;html=1;" parent="1" vertex="1">
          <mxGeometry x="230" y="320" width="100" height="60" as="geometry" />
        </mxCell>
        <mxCell id="12VAQ8Nin5VYsXPCudkx-18" value="" style="edgeStyle=orthogonalEdgeStyle;rounded=0;orthogonalLoop=1;jettySize=auto;html=1;" parent="1" source="12VAQ8Nin5VYsXPCudkx-17" target="12VAQ8Nin5VYsXPCudkx-16" edge="1">
          <mxGeometry relative="1" as="geometry" />
        </mxCell>
        <mxCell id="12VAQ8Nin5VYsXPCudkx-17" value="街道上报房屋数量" style="rounded=0;whiteSpace=wrap;html=1;" parent="1" vertex="1">
          <mxGeometry x="250" y="250" width="60" height="50" as="geometry" />
        </mxCell>
        <mxCell id="12VAQ8Nin5VYsXPCudkx-23" value="" style="edgeStyle=orthogonalEdgeStyle;rounded=0;orthogonalLoop=1;jettySize=auto;html=1;" parent="1" source="12VAQ8Nin5VYsXPCudkx-20" target="12VAQ8Nin5VYsXPCudkx-22" edge="1">
          <mxGeometry relative="1" as="geometry" />
        </mxCell>
        <mxCell id="12VAQ8Nin5VYsXPCudkx-20" value="选择检测机构" style="rounded=0;whiteSpace=wrap;html=1;" parent="1" vertex="1">
          <mxGeometry x="410" y="320" width="100" height="60" as="geometry" />
        </mxCell>
        <mxCell id="12VAQ8Nin5VYsXPCudkx-25" style="edgeStyle=orthogonalEdgeStyle;rounded=0;orthogonalLoop=1;jettySize=auto;html=1;" parent="1" source="12VAQ8Nin5VYsXPCudkx-22" target="12VAQ8Nin5VYsXPCudkx-24" edge="1">
          <mxGeometry relative="1" as="geometry">
            <Array as="points">
              <mxPoint x="750" y="350" />
            </Array>
          </mxGeometry>
        </mxCell>
        <mxCell id="12VAQ8Nin5VYsXPCudkx-22" value="检测人员使用APP进行现场排查" style="rounded=0;whiteSpace=wrap;html=1;" parent="1" vertex="1">
          <mxGeometry x="580" y="320" width="100" height="60" as="geometry" />
        </mxCell>
        <mxCell id="12VAQ8Nin5VYsXPCudkx-85" style="edgeStyle=orthogonalEdgeStyle;rounded=0;orthogonalLoop=1;jettySize=auto;html=1;entryX=0.5;entryY=1;entryDx=0;entryDy=0;" parent="1" source="12VAQ8Nin5VYsXPCudkx-24" target="12VAQ8Nin5VYsXPCudkx-16" edge="1">
          <mxGeometry relative="1" as="geometry" />
        </mxCell>
        <mxCell id="DlqaA8EnQx2PC2uiid0q-2" style="edgeStyle=orthogonalEdgeStyle;rounded=0;orthogonalLoop=1;jettySize=auto;html=1;" edge="1" parent="1" source="12VAQ8Nin5VYsXPCudkx-24" target="DlqaA8EnQx2PC2uiid0q-1">
          <mxGeometry relative="1" as="geometry">
            <Array as="points">
              <mxPoint x="396" y="450" />
            </Array>
          </mxGeometry>
        </mxCell>
        <mxCell id="12VAQ8Nin5VYsXPCudkx-24" value="录入详细的隐患&lt;br&gt;排查记录表" style="rounded=0;whiteSpace=wrap;html=1;" parent="1" vertex="1">
          <mxGeometry x="580" y="410" width="100" height="60" as="geometry" />
        </mxCell>
        <mxCell id="12VAQ8Nin5VYsXPCudkx-28" value="A、B两级&lt;br&gt;只做记录" style="rounded=0;whiteSpace=wrap;html=1;" parent="1" vertex="1">
          <mxGeometry x="458" y="595" width="100" height="60" as="geometry" />
        </mxCell>
        <mxCell id="12VAQ8Nin5VYsXPCudkx-112" value="" style="edgeStyle=orthogonalEdgeStyle;rounded=0;orthogonalLoop=1;jettySize=auto;html=1;" parent="1" source="12VAQ8Nin5VYsXPCudkx-30" target="12VAQ8Nin5VYsXPCudkx-32" edge="1">
          <mxGeometry relative="1" as="geometry" />
        </mxCell>
        <mxCell id="12VAQ8Nin5VYsXPCudkx-30" value="C、D两级房屋" style="rounded=0;whiteSpace=wrap;html=1;" parent="1" vertex="1">
          <mxGeometry x="613" y="595" width="100" height="60" as="geometry" />
        </mxCell>
        <mxCell id="12VAQ8Nin5VYsXPCudkx-58" value="" style="edgeStyle=orthogonalEdgeStyle;rounded=0;orthogonalLoop=1;jettySize=auto;html=1;" parent="1" source="12VAQ8Nin5VYsXPCudkx-32" target="12VAQ8Nin5VYsXPCudkx-57" edge="1">
          <mxGeometry relative="1" as="geometry" />
        </mxCell>
        <mxCell id="12VAQ8Nin5VYsXPCudkx-32" value="出具鉴定报告" style="rounded=0;whiteSpace=wrap;html=1;" parent="1" vertex="1">
          <mxGeometry x="522" y="735" width="100" height="60" as="geometry" />
        </mxCell>
        <mxCell id="12VAQ8Nin5VYsXPCudkx-100" value="" style="edgeStyle=orthogonalEdgeStyle;rounded=0;orthogonalLoop=1;jettySize=auto;html=1;" parent="1" source="12VAQ8Nin5VYsXPCudkx-34" target="12VAQ8Nin5VYsXPCudkx-41" edge="1">
          <mxGeometry relative="1" as="geometry" />
        </mxCell>
        <mxCell id="12VAQ8Nin5VYsXPCudkx-34" value="拆除" style="rounded=0;whiteSpace=wrap;html=1;" parent="1" vertex="1">
          <mxGeometry x="428" y="955" width="100" height="60" as="geometry" />
        </mxCell>
        <mxCell id="DlqaA8EnQx2PC2uiid0q-11" value="" style="edgeStyle=orthogonalEdgeStyle;rounded=0;orthogonalLoop=1;jettySize=auto;html=1;" edge="1" parent="1" source="12VAQ8Nin5VYsXPCudkx-37" target="12VAQ8Nin5VYsXPCudkx-104">
          <mxGeometry relative="1" as="geometry" />
        </mxCell>
        <mxCell id="12VAQ8Nin5VYsXPCudkx-37" value="加固" style="rounded=0;whiteSpace=wrap;html=1;" parent="1" vertex="1">
          <mxGeometry x="603" y="945" width="100" height="60" as="geometry" />
        </mxCell>
        <mxCell id="12VAQ8Nin5VYsXPCudkx-39" value="C级" style="text;html=1;resizable=0;autosize=1;align=center;verticalAlign=middle;points=[];fillColor=none;strokeColor=none;rounded=0;" parent="1" vertex="1">
          <mxGeometry x="610" y="915" width="40" height="20" as="geometry" />
        </mxCell>
        <mxCell id="12VAQ8Nin5VYsXPCudkx-40" value="D级" style="text;html=1;resizable=0;autosize=1;align=center;verticalAlign=middle;points=[];fillColor=none;strokeColor=none;rounded=0;" parent="1" vertex="1">
          <mxGeometry x="482" y="925" width="40" height="20" as="geometry" />
        </mxCell>
        <mxCell id="12VAQ8Nin5VYsXPCudkx-41" value="闭环" style="rounded=0;whiteSpace=wrap;html=1;" parent="1" vertex="1">
          <mxGeometry x="428" y="1055" width="100" height="60" as="geometry" />
        </mxCell>
        <mxCell id="12VAQ8Nin5VYsXPCudkx-45" value="排查后需要更新房屋总数" style="text;html=1;resizable=0;autosize=1;align=center;verticalAlign=middle;points=[];fillColor=none;strokeColor=none;rounded=0;rotation=0;" parent="1" vertex="1">
          <mxGeometry x="360" y="420" width="150" height="20" as="geometry" />
        </mxCell>
        <mxCell id="12VAQ8Nin5VYsXPCudkx-55" value="定级" style="text;strokeColor=default;fillColor=none;align=left;verticalAlign=top;spacingLeft=4;spacingRight=4;overflow=hidden;rotatable=0;points=[[0,0.5],[1,0.5]];portConstraint=eastwest;dashed=1;" parent="1" vertex="1">
          <mxGeometry x="400" y="570" width="360" height="105" as="geometry" />
        </mxCell>
        <mxCell id="12VAQ8Nin5VYsXPCudkx-62" style="edgeStyle=orthogonalEdgeStyle;rounded=0;orthogonalLoop=1;jettySize=auto;html=1;entryX=1;entryY=0.5;entryDx=0;entryDy=0;" parent="1" source="12VAQ8Nin5VYsXPCudkx-57" target="12VAQ8Nin5VYsXPCudkx-93" edge="1">
          <mxGeometry relative="1" as="geometry">
            <Array as="points">
              <mxPoint x="780" y="895" />
              <mxPoint x="780" y="510" />
            </Array>
          </mxGeometry>
        </mxCell>
        <mxCell id="12VAQ8Nin5VYsXPCudkx-63" style="edgeStyle=orthogonalEdgeStyle;rounded=0;orthogonalLoop=1;jettySize=auto;html=1;entryX=0.5;entryY=0;entryDx=0;entryDy=0;" parent="1" source="12VAQ8Nin5VYsXPCudkx-57" target="12VAQ8Nin5VYsXPCudkx-34" edge="1">
          <mxGeometry relative="1" as="geometry" />
        </mxCell>
        <mxCell id="12VAQ8Nin5VYsXPCudkx-64" style="edgeStyle=orthogonalEdgeStyle;rounded=0;orthogonalLoop=1;jettySize=auto;html=1;" parent="1" source="12VAQ8Nin5VYsXPCudkx-57" target="12VAQ8Nin5VYsXPCudkx-37" edge="1">
          <mxGeometry relative="1" as="geometry">
            <Array as="points">
              <mxPoint x="660" y="905" />
            </Array>
          </mxGeometry>
        </mxCell>
        <mxCell id="12VAQ8Nin5VYsXPCudkx-57" value="报送&lt;br&gt;委托人" style="rhombus;whiteSpace=wrap;html=1;" parent="1" vertex="1">
          <mxGeometry x="532" y="865" width="80" height="80" as="geometry" />
        </mxCell>
        <mxCell id="12VAQ8Nin5VYsXPCudkx-60" value="有异议，&lt;br&gt;主管部门&lt;br&gt;组织复核" style="text;html=1;resizable=0;autosize=1;align=center;verticalAlign=middle;points=[];fillColor=none;strokeColor=none;rounded=0;dashed=1;" parent="1" vertex="1">
          <mxGeometry x="700" y="760" width="60" height="50" as="geometry" />
        </mxCell>
        <mxCell id="12VAQ8Nin5VYsXPCudkx-66" value="对检测机构进行信用评价" style="rounded=0;whiteSpace=wrap;html=1;" parent="1" vertex="1">
          <mxGeometry x="20" y="515" width="100" height="60" as="geometry" />
        </mxCell>
        <mxCell id="12VAQ8Nin5VYsXPCudkx-71" value="" style="edgeStyle=orthogonalEdgeStyle;rounded=0;orthogonalLoop=1;jettySize=auto;html=1;" parent="1" source="12VAQ8Nin5VYsXPCudkx-69" target="12VAQ8Nin5VYsXPCudkx-70" edge="1">
          <mxGeometry relative="1" as="geometry" />
        </mxCell>
        <mxCell id="12VAQ8Nin5VYsXPCudkx-69" value="检测参加人，&lt;br&gt;报告编写人，&lt;br&gt;报告审核人，&lt;br&gt;报告批准人，" style="rounded=0;whiteSpace=wrap;html=1;" parent="1" vertex="1">
          <mxGeometry x="47" y="735" width="100" height="60" as="geometry" />
        </mxCell>
        <mxCell id="12VAQ8Nin5VYsXPCudkx-72" style="edgeStyle=orthogonalEdgeStyle;rounded=0;orthogonalLoop=1;jettySize=auto;html=1;entryX=0;entryY=0.5;entryDx=0;entryDy=0;" parent="1" source="12VAQ8Nin5VYsXPCudkx-70" target="12VAQ8Nin5VYsXPCudkx-32" edge="1">
          <mxGeometry relative="1" as="geometry">
            <mxPoint x="382" y="805" as="targetPoint" />
          </mxGeometry>
        </mxCell>
        <mxCell id="12VAQ8Nin5VYsXPCudkx-70" value="生成电子版报告（电子盖章）" style="rounded=0;whiteSpace=wrap;html=1;" parent="1" vertex="1">
          <mxGeometry x="237" y="735" width="100" height="60" as="geometry" />
        </mxCell>
        <mxCell id="12VAQ8Nin5VYsXPCudkx-73" value="按照要求上报&lt;br&gt;排查汇总表" style="rounded=0;whiteSpace=wrap;html=1;" parent="1" vertex="1">
          <mxGeometry x="140" y="875" width="100" height="60" as="geometry" />
        </mxCell>
        <mxCell id="12VAQ8Nin5VYsXPCudkx-88" value="管理专家库" style="rounded=0;whiteSpace=wrap;html=1;" parent="1" vertex="1">
          <mxGeometry x="170" y="515" width="100" height="60" as="geometry" />
        </mxCell>
        <mxCell id="12VAQ8Nin5VYsXPCudkx-123" value="" style="edgeStyle=orthogonalEdgeStyle;rounded=0;orthogonalLoop=1;jettySize=auto;html=1;" parent="1" source="12VAQ8Nin5VYsXPCudkx-93" target="12VAQ8Nin5VYsXPCudkx-55" edge="1">
          <mxGeometry relative="1" as="geometry">
            <Array as="points">
              <mxPoint x="700" y="570" />
              <mxPoint x="700" y="570" />
            </Array>
          </mxGeometry>
        </mxCell>
        <mxCell id="12VAQ8Nin5VYsXPCudkx-93" value="需要专家&lt;br&gt;定级" style="rounded=0;whiteSpace=wrap;html=1;" parent="1" vertex="1">
          <mxGeometry x="650" y="480" width="100" height="60" as="geometry" />
        </mxCell>
        <mxCell id="12VAQ8Nin5VYsXPCudkx-105" value="" style="edgeStyle=orthogonalEdgeStyle;rounded=0;orthogonalLoop=1;jettySize=auto;html=1;" parent="1" source="12VAQ8Nin5VYsXPCudkx-104" target="12VAQ8Nin5VYsXPCudkx-41" edge="1">
          <mxGeometry relative="1" as="geometry" />
        </mxCell>
        <mxCell id="DlqaA8EnQx2PC2uiid0q-12" style="edgeStyle=orthogonalEdgeStyle;rounded=0;orthogonalLoop=1;jettySize=auto;html=1;entryX=1;entryY=0.5;entryDx=0;entryDy=0;" edge="1" parent="1" source="12VAQ8Nin5VYsXPCudkx-104" target="12VAQ8Nin5VYsXPCudkx-37">
          <mxGeometry relative="1" as="geometry">
            <Array as="points">
              <mxPoint x="740" y="1085" />
              <mxPoint x="740" y="975" />
            </Array>
          </mxGeometry>
        </mxCell>
        <mxCell id="12VAQ8Nin5VYsXPCudkx-104" value="专家复核" style="rhombus;whiteSpace=wrap;html=1;dashed=1;strokeColor=default;" parent="1" vertex="1">
          <mxGeometry x="613" y="1055" width="80" height="60" as="geometry" />
        </mxCell>
        <mxCell id="12VAQ8Nin5VYsXPCudkx-107" value="未通过" style="text;html=1;resizable=0;autosize=1;align=center;verticalAlign=middle;points=[];fillColor=none;strokeColor=none;rounded=0;dashed=1;" parent="1" vertex="1">
          <mxGeometry x="680" y="1055" width="50" height="20" as="geometry" />
        </mxCell>
        <mxCell id="12VAQ8Nin5VYsXPCudkx-108" value="通过" style="text;html=1;resizable=0;autosize=1;align=center;verticalAlign=middle;points=[];fillColor=none;strokeColor=none;rounded=0;dashed=1;" parent="1" vertex="1">
          <mxGeometry x="558" y="1090" width="40" height="20" as="geometry" />
        </mxCell>
        <mxCell id="12VAQ8Nin5VYsXPCudkx-111" value="检测机构关联区域" style="text;html=1;resizable=0;autosize=1;align=center;verticalAlign=middle;points=[];fillColor=none;strokeColor=none;rounded=0;dashed=1;" parent="1" vertex="1">
          <mxGeometry x="338" y="240" width="110" height="20" as="geometry" />
        </mxCell>
        <mxCell id="12VAQ8Nin5VYsXPCudkx-118" value="" style="edgeStyle=orthogonalEdgeStyle;rounded=0;orthogonalLoop=1;jettySize=auto;html=1;" parent="1" source="12VAQ8Nin5VYsXPCudkx-113" target="12VAQ8Nin5VYsXPCudkx-93" edge="1">
          <mxGeometry relative="1" as="geometry" />
        </mxCell>
        <mxCell id="12VAQ8Nin5VYsXPCudkx-121" value="" style="edgeStyle=orthogonalEdgeStyle;rounded=0;orthogonalLoop=1;jettySize=auto;html=1;" parent="1" source="12VAQ8Nin5VYsXPCudkx-113" target="12VAQ8Nin5VYsXPCudkx-55" edge="1">
          <mxGeometry relative="1" as="geometry">
            <Array as="points">
              <mxPoint x="526" y="570" />
              <mxPoint x="526" y="570" />
            </Array>
          </mxGeometry>
        </mxCell>
        <mxCell id="12VAQ8Nin5VYsXPCudkx-113" value="是否需要&lt;br&gt;专家定级" style="rhombus;whiteSpace=wrap;html=1;dashed=1;strokeColor=default;" parent="1" vertex="1">
          <mxGeometry x="486" y="480" width="80" height="60" as="geometry" />
        </mxCell>
        <mxCell id="12VAQ8Nin5VYsXPCudkx-120" value="需要" style="text;html=1;resizable=0;autosize=1;align=center;verticalAlign=middle;points=[];fillColor=none;strokeColor=none;rounded=0;dashed=1;" parent="1" vertex="1">
          <mxGeometry x="580" y="490" width="40" height="20" as="geometry" />
        </mxCell>
        <mxCell id="12VAQ8Nin5VYsXPCudkx-124" value="不需要" style="text;html=1;resizable=0;autosize=1;align=center;verticalAlign=middle;points=[];fillColor=none;strokeColor=none;rounded=0;dashed=1;" parent="1" vertex="1">
          <mxGeometry x="475" y="540" width="50" height="20" as="geometry" />
        </mxCell>
        <mxCell id="12VAQ8Nin5VYsXPCudkx-129" style="edgeStyle=orthogonalEdgeStyle;rounded=0;orthogonalLoop=1;jettySize=auto;html=1;entryX=1;entryY=0.5;entryDx=0;entryDy=0;" parent="1" source="12VAQ8Nin5VYsXPCudkx-126" target="12VAQ8Nin5VYsXPCudkx-73" edge="1">
          <mxGeometry relative="1" as="geometry" />
        </mxCell>
        <mxCell id="12VAQ8Nin5VYsXPCudkx-126" value="鉴定及闭合" style="text;strokeColor=default;fillColor=none;align=left;verticalAlign=top;spacingLeft=4;spacingRight=4;overflow=hidden;rotatable=0;points=[[0,0.5],[1,0.5]];portConstraint=eastwest;dashed=1;" parent="1" vertex="1">
          <mxGeometry x="400" y="685" width="360" height="440" as="geometry" />
        </mxCell>
        <mxCell id="12VAQ8Nin5VYsXPCudkx-130" value="&lt;span style=&quot;&quot;&gt;发起&lt;/span&gt;&lt;span style=&quot;&quot;&gt;大&lt;br&gt;排查计划&lt;/span&gt;" style="text;html=1;resizable=0;autosize=1;align=center;verticalAlign=middle;points=[];fillColor=none;strokeColor=none;rounded=0;dashed=1;" parent="1" vertex="1">
          <mxGeometry x="160" y="315" width="60" height="30" as="geometry" />
        </mxCell>
        <mxCell id="12VAQ8Nin5VYsXPCudkx-131" value="企业审核流程" style="text;strokeColor=default;fillColor=none;align=left;verticalAlign=top;spacingLeft=4;spacingRight=4;overflow=hidden;rotatable=0;points=[[0,0.5],[1,0.5]];portConstraint=eastwest;dashed=1;" parent="1" vertex="1">
          <mxGeometry x="10" y="10" width="800" height="190" as="geometry" />
        </mxCell>
        <mxCell id="12VAQ8Nin5VYsXPCudkx-132" value="危房排查流程" style="text;strokeColor=default;fillColor=none;align=left;verticalAlign=top;spacingLeft=4;spacingRight=4;overflow=hidden;rotatable=0;points=[[0,0.5],[1,0.5]];portConstraint=eastwest;dashed=1;" parent="1" vertex="1">
          <mxGeometry x="10" y="210" width="800" height="930" as="geometry" />
        </mxCell>
        <mxCell id="DlqaA8EnQx2PC2uiid0q-4" style="edgeStyle=orthogonalEdgeStyle;rounded=0;orthogonalLoop=1;jettySize=auto;html=1;entryX=0;entryY=0.5;entryDx=0;entryDy=0;" edge="1" parent="1" source="DlqaA8EnQx2PC2uiid0q-1" target="12VAQ8Nin5VYsXPCudkx-113">
          <mxGeometry relative="1" as="geometry" />
        </mxCell>
        <mxCell id="DlqaA8EnQx2PC2uiid0q-7" style="edgeStyle=orthogonalEdgeStyle;rounded=0;orthogonalLoop=1;jettySize=auto;html=1;entryX=0.5;entryY=0;entryDx=0;entryDy=0;" edge="1" parent="1" source="DlqaA8EnQx2PC2uiid0q-1" target="DlqaA8EnQx2PC2uiid0q-5">
          <mxGeometry relative="1" as="geometry">
            <Array as="points">
              <mxPoint x="325" y="510" />
              <mxPoint x="325" y="555" />
            </Array>
          </mxGeometry>
        </mxCell>
        <mxCell id="DlqaA8EnQx2PC2uiid0q-1" value="是否疑似&lt;br&gt;危房" style="rhombus;whiteSpace=wrap;html=1;dashed=1;strokeColor=default;" vertex="1" parent="1">
          <mxGeometry x="356" y="480" width="80" height="60" as="geometry" />
        </mxCell>
        <mxCell id="DlqaA8EnQx2PC2uiid0q-5" value="房屋正&lt;br&gt;常使用" style="rounded=0;whiteSpace=wrap;html=1;" vertex="1" parent="1">
          <mxGeometry x="289" y="575" width="71" height="45" as="geometry" />
        </mxCell>
        <mxCell id="DlqaA8EnQx2PC2uiid0q-8" value="否" style="text;html=1;resizable=0;autosize=1;align=center;verticalAlign=middle;points=[];fillColor=none;strokeColor=none;rounded=0;" vertex="1" parent="1">
          <mxGeometry x="326" y="480" width="30" height="20" as="geometry" />
        </mxCell>
        <mxCell id="DlqaA8EnQx2PC2uiid0q-10" value="是" style="text;html=1;resizable=0;autosize=1;align=center;verticalAlign=middle;points=[];fillColor=none;strokeColor=none;rounded=0;" vertex="1" parent="1">
          <mxGeometry x="438" y="480" width="30" height="20" as="geometry" />
        </mxCell>
      </root>
    </mxGraphModel>
  </diagram>
</mxfile>
